<svg height="682pt" viewBox="-21 -21 682 682.6683" width="682pt" xmlns="http://www.w3.org/2000/svg"><path d="m92.835938 266.75c-3.289063 0-6.515626 1.328125-8.839844 3.652344-2.324219 2.339844-3.660156 5.550781-3.660156 8.847656 0 3.289062 1.335937 6.511719 3.660156 8.835938 2.328125 2.332031 5.550781 3.664062 8.839844 3.664062 3.285156 0 6.511718-1.332031 8.835937-3.664062 2.324219-2.332032 3.664063-5.546876 3.664063-8.835938 0-3.285156-1.339844-6.507812-3.664063-8.847656-2.324219-2.324219-5.550781-3.652344-8.835937-3.652344zm0 0"/><path d="m547.835938 407.414062c3.285156 0 6.511718-1.339843 8.835937-3.664062s3.664063-5.550781 3.664063-8.835938c0-3.285156-1.339844-6.515624-3.664063-8.839843s-5.550781-3.660157-8.835937-3.660157c-3.289063 0-6.515626 1.335938-8.839844 3.660157-2.324219 2.324219-3.660156 5.554687-3.660156 8.839843 0 3.285157 1.335937 6.511719 3.660156 8.835938 2.324218 2.324219 5.550781 3.664062 8.839844 3.664062zm0 0"/><path d="m635.398438 70.050781c-3.109376-2.367187-7.148438-3.140625-10.914063-2.089843l-16.230469 4.515624v-59.976562c0-4.402344-2.320312-8.480469-6.097656-10.730469-3.785156-2.257812-8.46875-2.359375-12.34375-.265625l-86.976562 46.964844v-35.96875c0-4.792969-2.746094-9.167969-7.066407-11.253906-4.316406-2.085938-9.453125-1.519532-13.207031 1.464844l-162.226562 128.828124-162.226563-128.828124c-3.757813-2.984376-8.894531-3.550782-13.210937-1.464844-4.320313 2.085937-7.0625 6.460937-7.0625 11.253906v35.96875l-86.980469-46.96875c-3.871094-2.089844-8.558594-1.992188-12.34375.265625-3.777344 2.253906-6.09375 6.332031-6.09375 10.734375v59.976562l-16.230469-4.515624c-3.761719-1.050782-7.804688-.273438-10.910156 2.089843-3.117188 2.363281-4.941406 6.042969-4.941406 9.949219v480c0 5.613281 3.738281 10.539062 9.144531 12.042969l242.5 67.5c.007812.003906.023437 0 .035156 0 1.058594.289062 2.167969.457031 3.320313.457031h130c1.144531 0 2.25-.164062 3.304687-.453125.015625-.003906.027344 0 .042969-.003906l242.5-67.5c5.410156-1.503907 9.152344-6.429688 9.152344-12.042969v-480c0-3.90625-1.828126-7.585938-4.9375-9.949219zm-52.148438 9.382813-175.722656 48.917968 175.722656-94.894531zm-105.414062-17.464844-92.792969 50.109375 92.792969-73.6875zm-315-23.578125 92.792968 73.6875-92.792968-50.109375zm-105.417969-4.933594 175.730469 94.894531-175.730469-48.917968zm-32.082031 63 55 15.308594v124.148437c0 6.90625 5.59375 12.5 12.5 12.5 6.902343 0 12.5-5.59375 12.5-12.5v-117.191406l137.5 38.277344v454.046875l-217.5-60.542969zm347.5 518.542969h-105v-455h105zm242.5-64.496094-55 15.308594v-121.109375c0-6.902344-5.597657-12.5-12.5-12.5-6.90625 0-12.5 5.597656-12.5 12.5v128.070313l-137.5 38.273437v-454.046875l217.5-60.542969zm0 0"/></svg>