<svg width="109" height="132" xmlns="http://www.w3.org/2000/svg">
 <!-- Created with Method Draw - http://github.com/duopixel/Method-Draw/ -->

 <g>
  <title>background</title>
  <rect fill="#fff" id="canvas_background" height="134" width="111" y="-1" x="-1"/>
  <g display="none" overflow="visible" y="0" x="0" height="100%" width="100%" id="canvasGrid">
   <rect fill="url(#gridpattern)" stroke-width="0" y="0" x="0" height="100%" width="100%"/>
  </g>
 </g>
 <g>
  <title>Layer 1</title>
  <g id="svg_26">
   <g transform="matrix(1.04167, 0, 0, 1.04167, 0, 0)" id="svg_5">
    <g id="svg_6">
     <path id="svg_7" fill="#72B6D3" d="m15.060669,3.360626c-4.300003,0 -7.699997,3.5 -7.699997,7.699997l0,101.600006c0,4.300003 3.5,7.699997 7.699997,7.699997l85.200012,0l0,-15.5l0,-101.5l-85.200012,0z"/>
    </g>
    <g id="svg_8" opacity="0.1">
     <path id="svg_9" fill="#090C10" d="m22.760666,3.360626l-7.699997,0c-4.300003,0 -7.699997,3.5 -7.699997,7.699997l0,101.600006c0,4.300003 3.5,7.699997 7.699997,7.699997l7.699997,0l0,-117z"/>
    </g>
    <g id="svg_10">
     <path id="svg_11" fill="#FFFFFF" d="m14.16066,105.360626l85.800003,0l0,14.600006l-85.800003,0c-3.599991,0 -6.599991,-3.300003 -6.599991,-7.300003l0,0c0,-4 2.899994,-7.300003 6.599991,-7.300003z"/>
    </g>
    <g id="svg_12">
     <path id="svg_13" fill="#62355C" d="m100.260681,121.460632l-85.200012,0c-4.800003,0 -8.699997,-3.900009 -8.699997,-8.700012l0,-101.699997c0,-4.800003 3.899994,-8.699997 8.699997,-8.699997l85.200012,0c0.599976,0 1,0.399994 1,1l0,117.100006c0,0.5 -0.5,1 -1,1zm-85.200012,-117.100006c-3.699997,0 -6.699997,3 -6.699997,6.699997l0,101.600006c0,3.699997 3,6.699997 6.699997,6.699997l84.200012,0l0,-115l-84.200012,0z"/>
    </g>
    <g id="svg_14">
     <path id="svg_15" fill="#62355C" d="m7.260666,113.660629c-0.600006,0 -1,-0.400009 -1,-1l0,-101.600006c0,-4.800003 3.899994,-8.699997 8.699997,-8.699997l7.800003,0c0.599991,0 1,0.399994 1,1l0,101.600006c0,0.599991 -0.400009,1 -1,1l-7.699997,0c-3.699997,0 -6.699997,3 -6.699997,6.699997c-0.100006,0.599991 -0.5,1 -1.100006,1zm7.800003,-109.300003c-3.699997,0 -6.699997,3 -6.699997,6.699997l0,96c1.599991,-1.899994 4,-3.199997 6.699997,-3.199997l6.699997,0l0,-99.5l-6.699997,0z"/>
    </g>
    <g id="svg_16">
     <rect id="svg_17" y="111.660626" x="22.360666" width="5.9" height="11.7" fill="#F1ED7B"/>
    </g>
    <g id="svg_18">
     <path id="svg_19" fill="#62355C" d="m28.260666,124.360626l-5.900009,0c-0.599991,0 -0.999985,-0.399994 -0.999985,-1l0,-11.699997c0,-0.600006 0.399994,-1 0.999985,-1l5.900009,0c0.599991,0 1,0.399994 1,1l0,11.699997c0,0.600006 -0.5,1 -1,1zm-4.900009,-2l3.900009,0l0,-9.699997l-3.900009,0l0,9.699997z"/>
    </g>
    <g id="svg_20">
     <path id="svg_21" fill="#FFFFFF" d="m76.260681,56.060623l-30.300018,0c-4.299988,0 -7.799988,-3.5 -7.799988,-7.800003l0,-13.699997c0,-4.300003 3.5,-7.800003 7.799988,-7.800003l30.300018,0c4.299988,0 7.799988,3.5 7.799988,7.800003l0,13.699997c0,4.300003 -3.5,7.800003 -7.799988,7.800003z"/>
    </g>
    <g id="svg_22">
     <path id="svg_23" fill="#62355C" d="m76.260681,57.060623l-30.300018,0c-4.799988,0 -8.799988,-3.899994 -8.799988,-8.800003l0,-13.699997c0,-4.800003 3.899994,-8.800003 8.799988,-8.800003l30.300018,0c4.799988,0 8.799988,3.900009 8.799988,8.800003l0,13.699997c0,4.800003 -4,8.800003 -8.799988,8.800003zm-30.300018,-29.300003c-3.699982,0 -6.799988,3 -6.799988,6.800003l0,13.699997c0,3.700012 3,6.800003 6.799988,6.800003l30.300018,0c3.699982,0 6.799988,-3 6.799988,-6.800003l0,-13.699997c0,-3.699997 -3,-6.800003 -6.799988,-6.800003l-30.300018,0z"/>
    </g>
    <g id="svg_24">
     <path id="svg_25" fill="#62355C" d="m100.260681,105.960632l-77.500015,0c-0.599991,0 -1,-0.400009 -1,-1s0.400009,-1 1,-1l77.500015,0c0.599976,0 1,0.399994 1,1s-0.5,1 -1,1z"/>
    </g>
   </g>
  </g>
  <text transform="matrix(1.05633, 0, 0, 1, -15.5767, 0)" xml:space="preserve" text-anchor="start" font-family="Helvetica, Arial, sans-serif" font-size="8" id="svg_27" y="45" x="58.818848" stroke-width="0" stroke="#000" fill="#000000">Loading...</text>
 </g>
</svg>